DataType=double
version=3
OpenSimVersion=4.5-2023-11-26-efcdfd3eb
endheader
time	EMG01_right_gast_med	EMG02_right_glut_max	EMG03_left_gast_med	EMG04_left_glut_max	EMG05_right_glut_med	EMG06_right_bic_fem	EMG07_right_rect_fem	EMG08_right_vast_lat	EMG09_right_vast_med	EMG10_right_tens_fasc_lat	EMG11_left_glut_med	EMG12_left_bic_fem	EMG13_left_rect_fem	EMG14_left_vast_lat	EMG15_left_vast_med	EMG16_left_tens_fasc_lat
0.75	-0.004435825073946189	0.2170307751634552	0.08634909278682705	0.06272552297652778	0.1509066593014382	0.05609205724009749	0.02897723325854122	0.02172900187781975	0.01697864894863667	0.1326482710934276	0.1243661222708042	0.03709707048855209	0.1574845569154973	0.07467916708163932	0.1164761323990581	0.362573041405312
0.76	-0.00734753225911886	0.2171840760269967	0.09350673565647975	0.06127218570673316	0.1438187003660724	0.05968408462046305	0.02789863406673802	0.02121770031609323	0.01594242139521926	0.1259132555804288	0.1218601825580275	0.03439877997535743	0.1478069826955591	0.07027190780084659	0.1122836587994293	0.3625467150696876
0.77	-0.009392610885225659	0.2163083400345496	0.1015906936963513	0.05968726228950517	0.1363820064158906	0.06356680907584969	0.02695688145741416	0.02070227522558839	0.01488633536646228	0.1192304614850857	0.1193933479261997	0.03200401373168106	0.1382567188851466	0.06587622843907442	0.1078659494508632	0.3614833879268345
0.78	-0.01064484374814257	0.2144307872470142	0.1105996946083467	0.05797827949685554	0.128685837835044	0.06774885813529422	0.02616299225512891	0.02019431200094681	0.01382784085939034	0.1126575735319359	0.1169828855666421	0.02992862056740849	0.128920894811725	0.06152584740804325	0.1032675217292612	0.3593684276023655
0.79	-0.0111809446614015	0.2115911606700741	0.1205175318938528	0.05615358718462322	0.120821147595943	0.07223833016858641	0.02552721394668448	0.01970599519796822	0.012785548804292	0.1062483100882957	0.1146423959391536	0.02818331140662387	0.119879741338081	0.05725274837693444	0.09853284389180957	0.3561949768099975
0.8	-0.01107914385982143	0.2078408753937095	0.1313122635251107	0.05422237004675284	0.1128792996955563	0.07704247000417988	0.02505889370033383	0.01924991443133224	0.01177898459951898	0.1000521516391861	0.1123816917194675	0.02677357319911823	0.1112056686370176	0.05308683480187391	0.09370569079133072	0.3519642965789505
0.8100000000000001	-0.01041784890800168	0.2032420135465307	0.142935636293683	0.05219467880522866	0.1049508224761227	0.0821673234383172	0.02476634597265541	0.01883886112878508	0.01082832839268698	0.09411412499860274	0.1102067627403199	0.02569965920568359	0.1029625209368987	0.04905563118766716	0.08882855981482937	0.34668604075494
0.82	-0.009274400575079245	0.1978661971098128	0.1553227709872055	0.05008147817880512	0.0971242180660538	0.08761737483222522	0.02465672247896625	0.0184856210293215	0.009954145660041882	0.08847463914194051	0.1081198295879995	0.02495665590029439	0.09520501615858426	0.04518403594386191	0.08394215841207167	0.340378456777707
0.83	-0.007723940487293465	0.1917933677564946	0.1683921415097645	0.04789470699792994	0.08948484570423607	0.09339517347994436	0.02473588813184356	0.01820276715589565	0.009177111296528651	0.08316937214148303	0.1061194884549889	0.02453462581333263	0.08797837364413037	0.0414941289443488	0.07908497146513237	0.333068510694529
0.84	-0.005838404502162959	0.1851104999494074	0.1820458770297805	0.04564734419079246	0.08211389277029714	0.09950095749969411	0.02500830635917027	0.01800245770674782	0.008517730146456404	0.078229210115599	0.1042009480243941	0.02441882468200836	0.0813181284342743	0.03800503530804406	0.07429291345194029	0.3247919357023789
0.85	-0.003685652497135838	0.177910271097064	0.1961704100885253	0.0433534734079628	0.07508744339388541	0.1059322868713391	0.02547693692676129	0.01789624284839952	0.00799605663253708	0.07368023845077126	0.1023563555787875	0.02458999030414679	0.07525012627899655	0.0347328454510652	0.06959906694024655	0.3155932037008349
0.86	-0.00132874126981099	0.1702897099297503	0.2106374857378722	0.04102833871418897	0.06847565095663016	0.1126836978579559	0.02614314891946096	0.01789488376011185	0.007631415856888412	0.06954378362253923	0.100575205023398	0.0250246995922253	0.06979068985317409	0.03169058997927832	0.06503350570368935	0.3055254190258588
0.87	0.001174657340125243	0.162348841372123	0.2253055376512154	0.03868838380726109	0.06234201790891691	0.1197463889740236	0.02700665088652771	0.01800818653742638	0.007442128263915269	0.06583650189184848	0.09884481502374211	0.02569578950359165	0.06494694347642954	0.02888826646335095	0.06062319779622628	0.2946501315037307
0.88	0.003772695367734858	0.1541893436963877	0.2400214271835016	0.0363512676816706	0.05674278416403361	0.1271079450493544	0.0280654393995915	0.01824485280323168	0.007445239713387077	0.06257050985011452	0.09715086157940891	0.02657283668008839	0.06071728093932678	0.02633291365144334	0.05639198118870612	0.2830370609927919
0.89	0.006419650436745817	0.1459132316867463	0.2546225309707233	0.03403585073103007	0.05172642379927178	0.1347521022541628	0.02931576647728739	0.01861234817242576	0.007656258691818859	0.05975355113282056	0.09547794639830122	0.02762268970408734	0.05709195859608533	0.02402872728030902	0.05236060207389569	0.270763719083515
0.9	0.009076098624960406	0.1376215775767125	0.2689391520923958	0.03176214672642607	0.04733324880142998	0.1426585540423931	0.03075212560912824	0.01911678909713411	0.008088902470932939	0.05738919294322445	0.09381018051757635	0.02881004690480832	0.05405379358610937	0.02197721042475905	0.04854680388962678	0.2579149095698294
0.91	0.01170896871969202	0.1294132798640029	0.2827972188579613	0.02955123737505051	0.04359511811785312	0.1508027957466491	0.0323672556377722	0.01976284805745464	0.008754854316362602	0.0554770451383816	0.09213176171586103	0.03009807165434784	0.05157894524678932	0.02017735058599177	0.0449654538580869	0.2445820912188695
0.92	0.0142914893188115	0.1213838892797438	0.2960212233835698	0.02742514711516884	0.04053525021389021	0.1591560035687004	0.03415216168694889	0.02055367649898959	0.009663534302732965	0.05401299407596568	0.09042752454198769	0.03144903603831597	0.04963775700829218	0.01862581585512858	0.04162869365526995	0.2308625941394696
0.93	0.01680304083330698	0.113624501232579	0.3084373391663408	0.02540667672449036	0.0381681374654079	0.1676849422759479	0.03609615262299623	0.02149084433477719	0.01082188681435952	0.05298944362386016	0.08868344390475105	0.03282498266572853	0.04819563638502585	0.01731716353806835	0.03854610149679902	0.216858691382887
0.9399999999999999	0.01922892465767991	0.1062207245183975	0.3198766437922903	0.02351919536381025	0.0364995607159216	0.1763518960861656	0.03818689494978195	0.02257429434238499	0.01223418828419945	0.052395556378547	0.08688707755252006	0.03418839328677725	0.04721395161708021	0.01624405616036266	0.03572485398669002	0.2026765374036157
0.95	0.02156006188830728	0.09925173639482163	0.3301783615897712	0.02178639179020927	0.03552670192517157	0.1851146196681655	0.04041048322529475	0.02380230961303736	0.01390187903625114	0.05221748872830714	0.08502793841807518	0.03550285188995633	0.04665092459855028	0.01539748121279109	0.03316987751867585	0.1884249934940144
0.96	0.02379263410840895	0.09278943390769495	0.3391930335085945	0.02023198671409764	0.03523835200221209	0.1939263111956608	0.04275152694305984	0.02517149247296553	0.01582342323988157	0.05243861413226981	0.08309779260367431	0.03673368899800805	0.04646250101923483	0.01476697192718693	0.03088398127768345	0.1742143661282784
0.97	0.02592767877754952	0.08689769065603059	0.346785519639223	0.01887940975885734	0.03561520986724868	0.2027356173246061	0.04519325362637841	0.02667675391733181	0.01799420103139128	0.05303973052257772	0.08109088142937949	0.03784859292325865	0.04660318053481692	0.0143408266328434	0.02886796698520249	0.1601550862418738
0.98	0.02797065145601689	0.08163172705698656	0.3528377448065116	0.01775144607580804	0.0366302677413123	0.2114866896848061	0.04771762799472402	0.0283113133732736	0.02040643681067911	0.05399925010833987	0.07900406705509194	0.03881817297053205	0.04702679227554955	0.01410632398986623	0.02712071386188047	0.1463563568838499
0.99	0.02993096645130988	0.07703760043876677	0.3572511088091078	0.0168698590867413	0.03824927675916275	0.2201193201161893	0.05030548733592086	0.03006670932693855	0.02304916747946855	0.05529337230282924	0.07683690211344912	0.03961645942958248	0.04768720372129007	0.01404993097930735	0.02563924024890614	0.1329247958816848
1	0.03182152666782342	0.07315181879702619	0.3599484971143206	0.01625499695345447	0.04043128632568189	0.2285691836720923	0.05293669307482794	0.03193282184458357	0.02590825390207582	0.0568962424871008	0.07459162510670771	0.04022132610329467	0.04853895399434646	0.01415750029962865	0.02441874563594692	0.1199631000031414
1.01	0.03365825259260216	0.07000107904462492	0.3608758422745013	0.01592539120154328	0.04312925017367633	0.2367682143297331	0.05559029766137837	0.03389790827664724	0.02896643821507174	0.05878010099761738	0.07227308463561541	0.04061482332695891	0.04953780650212161	0.01441445400287775	0.02345263828882659	0.1075687564142409
1.02	0.03545961942052368	0.0676021276982169	0.3600032001808586	0.01589735636115033	0.04629069177554591	0.2446451313243814	0.05824472459300743	0.03594865363068083	0.03220344888459181	0.06091542806126481	0.06988859659037491	0.04078341314658204	0.05064122043243149	0.01480595083408529	0.02273255426387307	0.09583282528137074
1.03	0.03724621023869113	0.06596173979684514	0.3573253185951277	0.01618459945762558	0.0498584216441007	0.2521261265417379	0.06087795819403063	0.03807023738594494	0.03559615464173139	0.06327109099011442	0.06744773956112839	0.04071810354999079	0.05180874464895378	0.01531703560057336	0.02224837369523833	0.08483881481189205
1.04	0.03904029196969502	0.06507681058023998	0.3528616877774484	0.0167978478015268	0.05377129915600664	0.2591357160187285	0.06346773916118904	0.04024641876334099	0.03911876761401097	0.06581449986319665	0.06496209532653677	0.04041448458775468	0.05300233996452425	0.01593276969171967	0.02198824017921811	0.07466166746372209
1.05	0.04086541946630214	0.06493455387187912	0.3466560747957966	0.01774450301414959	0.05796503177873982	0.2655977508472874	0.06599176205857202	0.04245964238102034	0.04274309510156386	0.06851177782033281	0.06244494330563709	0.03987267427595059	0.05418663647252453	0.01663834247419799	0.02193858883732389	0.06536687319067318
1.06	0.04274607176205417	0.0655128012206324	0.3387755562520474	0.0190283287842675	0.06237300490978957	0.2714365743645447	0.06842787192979798	0.04469116588682678	0.04643883849775462	0.0713279521623713	0.05991091967692569	0.03909718508388382	0.05532913209785854	0.01741916382085849	0.02208418809815736	0.05700972211520281
1.07	0.0447073230176363	0.06678039673172992	0.32930907950583	0.02064917958766178	0.06692713580403127	0.2765783038228959	0.0707542589957461	0.04692121100962311	0.05017393681911502	0.07422717213677502	0.05737565286202116	0.03809672255917237	0.05640033752789265	0.01826093872662029	0.02240819947489754	0.04963470523765514
1.08	0.04677454918908741	0.06869768368633522	0.318365597435519	0.02260277745750902	0.07155874489438295	0.2809522067836471	0.0729496526970017	0.04912913970068097	0.05391495117928956	0.07717295822223419	0.05485538733651471	0.03688392705187739	0.0573738721697982	0.01914972601766457	0.0228922587965451	0.04327506822745128
